REM DIRINDEX 1\2,1\3,1\4,1\5
REM DIRNAME "folder01","folder02","folder03","folder04","folder05"
TITLE ""
FILE "1Q_j_2235-2248.mp3" MP3
  TRACK 01 AUDIO
    TITLE "3:cjc172_0406"
    INDEX 01 00:00:00
  TRACK 02 AUDIO
    TITLE "0:"
    INDEX 01 00:01:27
  TRACK 03 AUDIO
    TITLE "4:cjc172_0407"
    INDEX 01 00:01:39
  TRACK 04 AUDIO
    TITLE "0:"
    INDEX 01 00:04:18
  TRACK 05 AUDIO
    TITLE "5:cjc172_0408"
    INDEX 01 00:04:26
  TRACK 06 AUDIO
    TITLE "0:"
    INDEX 01 00:10:54
  TRACK 07 AUDIO
    TITLE "3:cjc172_0409"
    INDEX 01 00:11:26
  TRACK 08 AUDIO
    TITLE "0:"
    INDEX 01 00:12:55
  TRACK 09 AUDIO
    TITLE "4:cjc172_0410"
    INDEX 01 00:12:62
  TRACK 10 AUDIO
    TITLE "0:"
    INDEX 01 00:14:48
  TRACK 11 AUDIO
    TITLE "5:cjc172_0411"
    INDEX 01 00:14:54
  TRACK 12 AUDIO
    TITLE "0:"
    INDEX 01 00:19:02
  TRACK 13 AUDIO
    TITLE "3:cjc172_0412"
    INDEX 01 00:19:49
  TRACK 14 AUDIO
    TITLE "0:"
    INDEX 01 00:20:74
  TRACK 15 AUDIO
    TITLE "4:cjc172_0413"
    INDEX 01 00:21:07
  TRACK 16 AUDIO
    TITLE "0:"
    INDEX 01 00:22:33
  TRACK 17 AUDIO
    TITLE "5:cjc172_0414"
    INDEX 01 00:22:39
  TRACK 18 AUDIO
    TITLE "0:"
    INDEX 01 00:27:33
  TRACK 19 AUDIO
    TITLE "3:cjc172_0415"
    INDEX 01 00:28:09
  TRACK 20 AUDIO
    TITLE "0:"
    INDEX 01 00:29:59
  TRACK 21 AUDIO
    TITLE "4:cjc172_0416"
    INDEX 01 00:29:67
  TRACK 22 AUDIO
    TITLE "0:"
    INDEX 01 00:31:72
  TRACK 23 AUDIO
    TITLE "5:cjc172_0417"
    INDEX 01 00:32:04
  TRACK 24 AUDIO
    TITLE "0:"
    INDEX 01 00:39:32
  TRACK 25 AUDIO
    TITLE "3:cjc172_0418"
    INDEX 01 00:40:04
  TRACK 26 AUDIO
    TITLE "0:"
    INDEX 01 00:41:21
  TRACK 27 AUDIO
    TITLE "4:cjc172_0419"
    INDEX 01 00:41:31
  TRACK 28 AUDIO
    TITLE "0:"
    INDEX 01 00:43:20
  TRACK 29 AUDIO
    TITLE "5:cjc172_0420"
    INDEX 01 00:43:28
  TRACK 30 AUDIO
    TITLE "0:"
    INDEX 01 00:48:62
  TRACK 31 AUDIO
    TITLE "3:cjc172_0421"
    INDEX 01 00:49:32
  TRACK 32 AUDIO
    TITLE "0:"
    INDEX 01 00:50:67
  TRACK 33 AUDIO
    TITLE "4:cjc172_0422"
    INDEX 01 00:51:00
  TRACK 34 AUDIO
    TITLE "0:"
    INDEX 01 00:56:26
  TRACK 35 AUDIO
    TITLE "5:cjc172_0423"
    INDEX 01 00:56:32
  TRACK 36 AUDIO
    TITLE "0:"
    INDEX 01 01:04:01
  TRACK 37 AUDIO
    TITLE "3:cjc172_0424"
    INDEX 01 01:04:42
  TRACK 38 AUDIO
    TITLE "0:"
    INDEX 01 01:05:70
  TRACK 39 AUDIO
    TITLE "4:cjc172_0425"
    INDEX 01 01:06:03
  TRACK 40 AUDIO
    TITLE "0:"
    INDEX 01 01:09:15
  TRACK 41 AUDIO
    TITLE "5:cjc172_0426"
    INDEX 01 01:09:23
  TRACK 42 AUDIO
    TITLE "0:"
    INDEX 01 01:13:50
  TRACK 43 AUDIO
    TITLE "3:cjc172_0427"
    INDEX 01 01:14:20
  TRACK 44 AUDIO
    TITLE "0:"
    INDEX 01 01:16:08
  TRACK 45 AUDIO
    TITLE "4:cjc172_0428"
    INDEX 01 01:16:17
  TRACK 46 AUDIO
    TITLE "0:"
    INDEX 01 01:18:03
  TRACK 47 AUDIO
    TITLE "5:cjc172_0429"
    INDEX 01 01:18:10
  TRACK 48 AUDIO
    TITLE "0:"
    INDEX 01 01:24:72
  TRACK 49 AUDIO
    TITLE "3:cjc172_0430"
    INDEX 01 01:25:44
  TRACK 50 AUDIO
    TITLE "0:"
    INDEX 01 01:26:67
  TRACK 51 AUDIO
    TITLE "4:cjc172_0431"
    INDEX 01 01:27:04
  TRACK 52 AUDIO
    TITLE "0:"
    INDEX 01 01:29:10
  TRACK 53 AUDIO
    TITLE "5:cjc172_0432"
    INDEX 01 01:29:18
  TRACK 54 AUDIO
    TITLE "0:"
    INDEX 01 01:33:49
  TRACK 55 AUDIO
    TITLE "3:cjc172_0433"
    INDEX 01 01:34:21
  TRACK 56 AUDIO
    TITLE "0:"
    INDEX 01 01:35:38
  TRACK 57 AUDIO
    TITLE "4:cjc172_0434"
    INDEX 01 01:35:46
  TRACK 58 AUDIO
    TITLE "0:"
    INDEX 01 01:37:14
  TRACK 59 AUDIO
    TITLE "5:cjc172_0435"
    INDEX 01 01:37:23
  TRACK 60 AUDIO
    TITLE "0:"
    INDEX 01 01:44:00
  TRACK 61 AUDIO
    TITLE "3:cjc172_0436"
    INDEX 01 01:44:45
  TRACK 62 AUDIO
    TITLE "0:"
    INDEX 01 01:46:05
  TRACK 63 AUDIO
    TITLE "4:cjc172_0437"
    INDEX 01 01:46:11
  TRACK 64 AUDIO
    TITLE "0:"
    INDEX 01 01:50:67
  TRACK 65 AUDIO
    TITLE "5:cjc172_0438"
    INDEX 01 01:50:73
  TRACK 66 AUDIO
    TITLE "0:"
    INDEX 01 01:56:50
  TRACK 67 AUDIO
    TITLE "3:cjc172_0439"
    INDEX 01 01:57:20
  TRACK 68 AUDIO
    TITLE "0:"
    INDEX 01 01:58:47
  TRACK 69 AUDIO
    TITLE "4:cjc172_0440"
    INDEX 01 01:58:57
  TRACK 70 AUDIO
    TITLE "0:"
    INDEX 01 02:01:71
  TRACK 71 AUDIO
    TITLE "5:cjc172_0441"
    INDEX 01 02:02:02
  TRACK 72 AUDIO
    TITLE "0:"
    INDEX 01 02:06:51
  TRACK 73 AUDIO
    TITLE "3:cjc172_0442"
    INDEX 01 02:07:23
  TRACK 74 AUDIO
    TITLE "0:"
    INDEX 01 02:09:00
  TRACK 75 AUDIO
    TITLE "4:cjc172_0443"
    INDEX 01 02:09:12
  TRACK 76 AUDIO
    TITLE "0:"
    INDEX 01 02:11:46
  TRACK 77 AUDIO
    TITLE "5:cjc172_0444"
    INDEX 01 02:11:52
  TRACK 78 AUDIO
    TITLE "0:"
    INDEX 01 02:17:43
  TRACK 79 AUDIO
    TITLE "3:cjc172_0445"
    INDEX 01 02:18:13
  TRACK 80 AUDIO
    TITLE "0:"
    INDEX 01 02:19:30
  TRACK 81 AUDIO
    TITLE "4:cjc172_0446"
    INDEX 01 02:19:40
  TRACK 82 AUDIO
    TITLE "0:"
    INDEX 01 02:22:30
  TRACK 83 AUDIO
    TITLE "5:cjc172_0447"
    INDEX 01 02:22:36
  TRACK 84 AUDIO
    TITLE "0:"
    INDEX 01 02:27:70
